<svg xmlns="http://www.w3.org/2000/svg" viewBox="0 0 118.43 38.27"><defs><style>.cls-1{fill:#f25c05;}.cls-2{fill:none;stroke:#72a603;stroke-linecap:round;stroke-miterlimit:10;}</style></defs><g id="Layer_2" data-name="Layer 2"><g id="Layer_2-2" data-name="Layer 2"><path class="cls-1" d="M18.86,4.94c.4,0,.8,0,.9,0s.37.1.33.34a.37.37,0,0,1-.43.33c-.2,0-.4-.07-.9-.07-.83,0-1.13.27-1.3,1L13.74,27.63h1.89c5.63,0,7.82-2.56,8.39-4.72a10.89,10.89,0,0,0,.3-1.27c.07-.33.23-.53.46-.53s.24.2.17.53-.2.74-.4,1.43l-1.2,4.36c-.13.64-.3.87-1,.87h-12c-1.3,0-2.17.13-3,.13-.2,0-.37-.1-.3-.36s.16-.3.39-.3.44,0,.87,0c1,0,1.26-.27,1.4-1.16L13.27,6.47c.07-.7-.17-1-1-1-.44,0-.67.07-.9.07s-.33-.1-.27-.33a.37.37,0,0,1,.37-.34c.13,0,.56,0,.9,0,1.06,0,2.19.1,3.26.1S17.86,4.94,18.86,4.94Z"/><path class="cls-1" d="M32.94,27.1c.8,0,2-1.66,2.86-4.19.17-.57.8-.47.6.06-1.1,3.43-3,5.63-5.26,5.63-1.63,0-2.93-1.13-2.33-4.46l1.73-9.89c.2-1.19.2-2-.36-2-.84,0-2,1.67-2.9,4.2-.2.56-.76.46-.56-.07,1.06-3.46,3-5.62,5.22-5.62,1.63,0,3,1.1,2.36,4.42L32.57,25C32.34,26.27,32.34,27.1,32.94,27.1Zm1.36-23c1.14,0,1.93.87,1.7,2.3a2.89,2.89,0,0,1-2.73,2.39,1.68,1.68,0,0,1-1.66-2.19A3,3,0,0,1,34.3,4.07Z"/><path class="cls-1" d="M49.61,15.05A1.74,1.74,0,0,1,48,12.82a2.46,2.46,0,0,1,2.33-2.09h.17c2.13.06,2.92,1.46,2.56,3.52-.4,2.27-2.33,5.4-3.5,7.26l-4.32,7a.37.37,0,0,1-.34.23h-.1c-.16,0-.2-.1-.26-.23L41.66,15.79c-.83-3.27-1-3.57-1.4-3.57-.63,0-1.73,1.67-2.63,4.16-.23.6-.76.47-.56-.06,1-3.46,3-5.59,5.19-5.59,1.7,0,2.63,1.1,3.46,5.06L47.28,24,49,21.18c1.33-2.2,3-4.93,3.39-6.93a2.45,2.45,0,0,0-.46-2.16,3,3,0,0,1,0,.9A2.4,2.4,0,0,1,49.61,15.05Z"/><path class="cls-1" d="M60.6,27.1c.8,0,2-1.66,2.86-4.19.17-.57.8-.47.6.06-1.1,3.43-3,5.63-5.26,5.63-1.63,0-2.93-1.13-2.33-4.46l1.73-9.89c.2-1.19.2-2-.37-2-.83,0-2,1.67-2.89,4.2-.2.56-.77.46-.57-.07,1.07-3.46,3-5.62,5.23-5.62,1.63,0,3,1.1,2.36,4.42L60.23,25C60,26.27,60,27.1,60.6,27.1ZM62,4.07c1.13,0,1.93.87,1.7,2.3a2.89,2.89,0,0,1-2.73,2.39,1.68,1.68,0,0,1-1.66-2.19A3,3,0,0,1,62,4.07Z"/><path class="cls-1" d="M77.67,11.89a2.89,2.89,0,0,0-1.73.83c-1.27,1-2.7,3.23-3.59,8.29l-1.1,6.29c-.14.77-.34,1-1.17,1h-1.9c-.86,0-1-.23-.86-1l1.76-10h0l.53-3.13c.24-1.23.2-2.07-.36-2.07-.8,0-2,1.67-2.87,4.2-.16.56-.76.46-.59-.07,1.09-3.43,3-5.62,5.22-5.62,1.66,0,3,1.13,2.4,4.46l0,0c1.2-2.66,3.27-4.36,5.89-4.36s4.4,1.46,3.63,5.66L81.36,25c-.23,1.2-.16,2,.37,2,.83,0,2-1.67,2.86-4.16.2-.57.8-.47.64.06-1.1,3.43-3,5.6-5.26,5.6-1.63,0-3-1.1-2.37-4.43l1.5-8.62C79.53,13,79.1,11.89,77.67,11.89Z"/><path class="cls-1" d="M96.51,27.9,97,25a6.89,6.89,0,0,1-2,2.43,5,5,0,0,1-3.12,1c-3.37,0-5.83-2.16-4.73-8.62,1-5.65,4.53-9,8.79-9a4.74,4.74,0,0,1,3.32,1.17l.14-.74c.06-.3.16-.43.4-.43s.33,0,.56.33c.53.84,2.73.87,4.1.9.23,0,.49,0,.66,0s.4.1.33.33a.41.41,0,0,1-.43.37c-.17,0-.36-.07-.7-.07-1,0-1.3.27-1.43,1.13l-2.36,13.35c-1,5.79-5.06,9.25-10.29,9.25-4.19,0-5.42-2.2-5-4.79a2.66,2.66,0,0,1,2.49-2.07,1.66,1.66,0,0,1,1.77,2.07A2.56,2.56,0,0,1,87,33.72a1.64,1.64,0,0,1-1.07-.39c.5,1.33,1.93,2.13,4,2.13C93.15,35.46,95.54,33.26,96.51,27.9Zm1.4-8,1.23-7a3.16,3.16,0,0,0-2.6-1.3c-2.59,0-4.36,3.7-5.22,8.72-.8,4.53-.37,7.16,1.73,7.16S96.91,24.64,97.91,19.91Z"/><path class="cls-2" d="M64.1,31.85C63.33,47,28.11,27.47.5,33.56"/><path class="cls-2" d="M54.33,6.42c.76-15.19,36,4.38,63.6-1.71"/></g></g></svg>